<mxfile host="app.diagrams.net" modified="2023-08-18T02:23:06.820Z" agent="5.0 (Macintosh; Intel Mac OS X 10_15_7) AppleWebKit/537.36 (KHTML, like Gecko) Chrome/114.0.0.0 Safari/537.36" etag="WAtCQ_2CIHJhQplw95mx" version="20.8.20" type="github">
  <diagram name="第 1 页" id="-RkjHy35TvW_YfYt9cNW">
    <mxGraphModel dx="1026" dy="511" grid="1" gridSize="10" guides="1" tooltips="1" connect="1" arrows="1" fold="1" page="1" pageScale="1" pageWidth="827" pageHeight="1169" math="0" shadow="0">
      <root>
        <mxCell id="0" />
        <mxCell id="1" parent="0" />
        <mxCell id="PoSb3hr_d72jRD9hR80R-1" value="个人工作区" style="swimlane;startSize=20;horizontal=1;containerType=tree;newEdgeStyle={&quot;edgeStyle&quot;:&quot;elbowEdgeStyle&quot;,&quot;startArrow&quot;:&quot;none&quot;,&quot;endArrow&quot;:&quot;none&quot;};" vertex="1" parent="1">
          <mxGeometry x="420" y="40" width="280" height="220" as="geometry" />
        </mxCell>
        <UserObject label="待办需求模块" treeRoot="1" id="PoSb3hr_d72jRD9hR80R-4">
          <mxCell style="whiteSpace=wrap;html=1;align=center;treeFolding=1;treeMoving=1;newEdgeStyle={&quot;edgeStyle&quot;:&quot;elbowEdgeStyle&quot;,&quot;startArrow&quot;:&quot;none&quot;,&quot;endArrow&quot;:&quot;none&quot;};" vertex="1" parent="PoSb3hr_d72jRD9hR80R-1">
            <mxGeometry x="80" y="40" width="120" height="60" as="geometry" />
          </mxCell>
        </UserObject>
        <mxCell id="PoSb3hr_d72jRD9hR80R-8" value="版本管理" style="swimlane;startSize=20;horizontal=1;containerType=tree;newEdgeStyle={&quot;edgeStyle&quot;:&quot;elbowEdgeStyle&quot;,&quot;startArrow&quot;:&quot;none&quot;,&quot;endArrow&quot;:&quot;none&quot;};" vertex="1" parent="1">
          <mxGeometry x="70" y="25" width="289" height="250" as="geometry" />
        </mxCell>
        <UserObject label="需求池" treeRoot="1" id="PoSb3hr_d72jRD9hR80R-9">
          <mxCell style="whiteSpace=wrap;html=1;align=center;treeFolding=1;treeMoving=1;newEdgeStyle={&quot;edgeStyle&quot;:&quot;elbowEdgeStyle&quot;,&quot;startArrow&quot;:&quot;none&quot;,&quot;endArrow&quot;:&quot;none&quot;};" vertex="1" parent="PoSb3hr_d72jRD9hR80R-8">
            <mxGeometry x="20" y="30" width="120" height="60" as="geometry" />
          </mxCell>
        </UserObject>
        <UserObject label="项目" treeRoot="1" id="PoSb3hr_d72jRD9hR80R-14">
          <mxCell style="whiteSpace=wrap;html=1;align=center;treeFolding=1;treeMoving=1;newEdgeStyle={&quot;edgeStyle&quot;:&quot;elbowEdgeStyle&quot;,&quot;startArrow&quot;:&quot;none&quot;,&quot;endArrow&quot;:&quot;none&quot;};" vertex="1" parent="PoSb3hr_d72jRD9hR80R-8">
            <mxGeometry x="150" y="30" width="120" height="60" as="geometry" />
          </mxCell>
        </UserObject>
        <UserObject label="版本" treeRoot="1" id="PoSb3hr_d72jRD9hR80R-15">
          <mxCell style="whiteSpace=wrap;html=1;align=center;treeFolding=1;treeMoving=1;newEdgeStyle={&quot;edgeStyle&quot;:&quot;elbowEdgeStyle&quot;,&quot;startArrow&quot;:&quot;none&quot;,&quot;endArrow&quot;:&quot;none&quot;};" vertex="1" parent="PoSb3hr_d72jRD9hR80R-8">
            <mxGeometry x="20" y="100" width="120" height="60" as="geometry" />
          </mxCell>
        </UserObject>
        <UserObject label="管线" treeRoot="1" id="PoSb3hr_d72jRD9hR80R-16">
          <mxCell style="whiteSpace=wrap;html=1;align=center;treeFolding=1;treeMoving=1;newEdgeStyle={&quot;edgeStyle&quot;:&quot;elbowEdgeStyle&quot;,&quot;startArrow&quot;:&quot;none&quot;,&quot;endArrow&quot;:&quot;none&quot;};" vertex="1" parent="PoSb3hr_d72jRD9hR80R-8">
            <mxGeometry x="150" y="100" width="120" height="60" as="geometry" />
          </mxCell>
        </UserObject>
        <UserObject label="大需求" treeRoot="1" id="PoSb3hr_d72jRD9hR80R-18">
          <mxCell style="whiteSpace=wrap;html=1;align=center;treeFolding=1;treeMoving=1;newEdgeStyle={&quot;edgeStyle&quot;:&quot;elbowEdgeStyle&quot;,&quot;startArrow&quot;:&quot;none&quot;,&quot;endArrow&quot;:&quot;none&quot;};" vertex="1" parent="PoSb3hr_d72jRD9hR80R-8">
            <mxGeometry x="20" y="170" width="120" height="60" as="geometry" />
          </mxCell>
        </UserObject>
        <UserObject label="子需求" treeRoot="1" id="PoSb3hr_d72jRD9hR80R-19">
          <mxCell style="whiteSpace=wrap;html=1;align=center;treeFolding=1;treeMoving=1;newEdgeStyle={&quot;edgeStyle&quot;:&quot;elbowEdgeStyle&quot;,&quot;startArrow&quot;:&quot;none&quot;,&quot;endArrow&quot;:&quot;none&quot;};" vertex="1" parent="PoSb3hr_d72jRD9hR80R-8">
            <mxGeometry x="150" y="170" width="120" height="60" as="geometry" />
          </mxCell>
        </UserObject>
        <mxCell id="PoSb3hr_d72jRD9hR80R-11" value="视图" style="swimlane;startSize=20;horizontal=1;containerType=tree;newEdgeStyle={&quot;edgeStyle&quot;:&quot;elbowEdgeStyle&quot;,&quot;startArrow&quot;:&quot;none&quot;,&quot;endArrow&quot;:&quot;none&quot;};" vertex="1" parent="1">
          <mxGeometry x="740" y="40" width="280" height="220" as="geometry" />
        </mxCell>
        <UserObject label="待办需求列表" treeRoot="1" id="PoSb3hr_d72jRD9hR80R-12">
          <mxCell style="whiteSpace=wrap;html=1;align=center;treeFolding=1;treeMoving=1;newEdgeStyle={&quot;edgeStyle&quot;:&quot;elbowEdgeStyle&quot;,&quot;startArrow&quot;:&quot;none&quot;,&quot;endArrow&quot;:&quot;none&quot;};" vertex="1" parent="PoSb3hr_d72jRD9hR80R-11">
            <mxGeometry x="80" y="40" width="120" height="60" as="geometry" />
          </mxCell>
        </UserObject>
        <UserObject label="待办缺陷" treeRoot="1" id="PoSb3hr_d72jRD9hR80R-13">
          <mxCell style="whiteSpace=wrap;html=1;align=center;treeFolding=1;treeMoving=1;newEdgeStyle={&quot;edgeStyle&quot;:&quot;elbowEdgeStyle&quot;,&quot;startArrow&quot;:&quot;none&quot;,&quot;endArrow&quot;:&quot;none&quot;};" vertex="1" parent="PoSb3hr_d72jRD9hR80R-11">
            <mxGeometry x="80" y="130" width="120" height="60" as="geometry" />
          </mxCell>
        </UserObject>
        <mxCell id="PoSb3hr_d72jRD9hR80R-20" value="基础功能" style="swimlane;startSize=20;horizontal=1;containerType=tree;newEdgeStyle={&quot;edgeStyle&quot;:&quot;elbowEdgeStyle&quot;,&quot;startArrow&quot;:&quot;none&quot;,&quot;endArrow&quot;:&quot;none&quot;};" vertex="1" parent="1">
          <mxGeometry x="70" y="290" width="960" height="220" as="geometry" />
        </mxCell>
        <UserObject label="登录" treeRoot="1" id="PoSb3hr_d72jRD9hR80R-21">
          <mxCell style="whiteSpace=wrap;html=1;align=center;treeFolding=1;treeMoving=1;newEdgeStyle={&quot;edgeStyle&quot;:&quot;elbowEdgeStyle&quot;,&quot;startArrow&quot;:&quot;none&quot;,&quot;endArrow&quot;:&quot;none&quot;};" vertex="1" parent="PoSb3hr_d72jRD9hR80R-20">
            <mxGeometry x="80" y="40" width="120" height="60" as="geometry" />
          </mxCell>
        </UserObject>
        <UserObject label="权限" treeRoot="1" id="PoSb3hr_d72jRD9hR80R-22">
          <mxCell style="whiteSpace=wrap;html=1;align=center;treeFolding=1;treeMoving=1;newEdgeStyle={&quot;edgeStyle&quot;:&quot;elbowEdgeStyle&quot;,&quot;startArrow&quot;:&quot;none&quot;,&quot;endArrow&quot;:&quot;none&quot;};" vertex="1" parent="PoSb3hr_d72jRD9hR80R-20">
            <mxGeometry x="80" y="130" width="120" height="60" as="geometry" />
          </mxCell>
        </UserObject>
        <UserObject label="项目切换" treeRoot="1" id="PoSb3hr_d72jRD9hR80R-23">
          <mxCell style="whiteSpace=wrap;html=1;align=center;treeFolding=1;treeMoving=1;newEdgeStyle={&quot;edgeStyle&quot;:&quot;elbowEdgeStyle&quot;,&quot;startArrow&quot;:&quot;none&quot;,&quot;endArrow&quot;:&quot;none&quot;};" vertex="1" parent="PoSb3hr_d72jRD9hR80R-20">
            <mxGeometry x="240" y="40" width="120" height="60" as="geometry" />
          </mxCell>
        </UserObject>
        <UserObject label="多语言" treeRoot="1" id="PoSb3hr_d72jRD9hR80R-24">
          <mxCell style="whiteSpace=wrap;html=1;align=center;treeFolding=1;treeMoving=1;newEdgeStyle={&quot;edgeStyle&quot;:&quot;elbowEdgeStyle&quot;,&quot;startArrow&quot;:&quot;none&quot;,&quot;endArrow&quot;:&quot;none&quot;};" vertex="1" parent="PoSb3hr_d72jRD9hR80R-20">
            <mxGeometry x="240" y="130" width="120" height="60" as="geometry" />
          </mxCell>
        </UserObject>
      </root>
    </mxGraphModel>
  </diagram>
</mxfile>
